<svg width="199" height="252" viewBox="0 0 199 252" fill="none" xmlns="http://www.w3.org/2000/svg">
<g filter="url(#filter0_d_103_53)">
<path d="M42.3139 16.0564C44.5244 9.16685 45.6296 5.72205 48.3309 3.72835C51.0322 1.73464 54.6497 1.6938 61.8847 1.61212L135.896 0.776522C143.131 0.694838 146.749 0.653996 149.495 2.5862C152.24 4.51841 153.423 7.93738 155.788 14.7753L161.639 31.6879L36.8468 33.0968L42.3139 16.0564Z" fill="#F2EDF2"/>
<path opacity="0.5" d="M62.4929 1.60528L88.4912 1.31176L78.4441 32.6272L52.4458 32.9207L62.4929 1.60528Z" fill="white"/>
<g opacity="0.06">
<path d="M140.84 31.9227L161.639 31.6878L155.788 14.7753C153.423 7.93734 152.24 4.51838 149.495 2.58617C146.749 0.653958 143.131 0.6948 135.896 0.776484L130.089 0.842055L140.84 31.9227Z" fill="black" style="mix-blend-mode:soft-light"/>
</g>
<rect x="21.2478" y="33.2729" width="156" height="20.8" rx="5.2" transform="rotate(-0.646844 21.2478 33.2729)" fill="#F2EDF2"/>
<path opacity="0.5" d="M42.0464 33.038L68.0448 32.7445L68.2796 53.5432L42.2813 53.8367L42.0464 33.038Z" fill="white"/>
<g opacity="0.06">
<path d="M156.439 31.7466L166.839 31.6291C171.741 31.5738 174.192 31.5461 175.732 33.0519C175.732 33.0519 175.732 33.0519 175.732 33.0519C177.272 34.5576 177.3 37.0088 177.355 41.9111V41.9111C177.411 46.8134 177.438 49.2645 175.933 50.8047C175.933 50.8047 175.933 50.8047 175.933 50.8047C174.427 52.3448 171.976 52.3725 167.073 52.4278L156.674 52.5452L156.439 31.7466Z" fill="black" style="mix-blend-mode:soft-light"/>
</g>
<path d="M37.0816 53.8954L161.874 52.4865L149.697 189.902C148.908 198.814 148.513 203.269 145.572 205.991C142.632 208.714 138.159 208.764 129.213 208.865L73.2643 209.497C64.3188 209.598 59.846 209.648 56.8447 206.993C53.8433 204.338 53.348 199.892 52.3574 191.001L37.0816 53.8954Z" fill="#E3DFE3"/>
<path opacity="0.5" d="M52.6806 53.7193L78.679 53.4257L96.0391 209.24L70.0408 209.533L52.6806 53.7193Z" fill="white"/>
<g opacity="0.06">
<path d="M161.874 52.4865L141.075 52.7213L127.237 208.887L129.213 208.865C138.159 208.764 142.632 208.714 145.572 205.991C148.513 203.269 148.908 198.814 149.697 189.902L161.874 52.4865Z" fill="black" style="mix-blend-mode:soft-light"/>
</g>
<g opacity="0.06">
<path fill-rule="evenodd" clip-rule="evenodd" d="M161.874 52.4865L37.0816 53.8954L37.6603 59.0892L161.412 57.692L161.874 52.4865ZM129.895 208.857L72.5827 209.505C72.807 209.502 73.0342 209.499 73.2643 209.497L129.213 208.865C129.443 208.863 129.671 208.86 129.895 208.857Z" fill="black" style="mix-blend-mode:soft-light"/>
</g>
<path fill-rule="evenodd" clip-rule="evenodd" d="M49.8124 168.159L48.655 157.771L152.648 156.597L151.726 167.008L49.8124 168.159Z" fill="#04764E" fill-opacity="0.3"/>
<path fill-rule="evenodd" clip-rule="evenodd" d="M35.9106 80.929C35.3253 75.5998 35.0326 72.9352 36.5612 71.2101C38.0897 69.485 40.7702 69.4547 46.131 69.3942L153.176 68.1856C158.537 68.1251 161.218 68.0949 162.785 69.785C164.352 71.4752 164.12 74.1457 163.655 79.4868L157.312 152.363C156.923 156.826 156.729 159.057 155.258 160.421C153.787 161.785 151.547 161.81 147.068 161.861L54.3526 162.907C49.8734 162.958 47.6338 162.983 46.1324 161.653C44.631 160.323 44.3864 158.096 43.8974 153.643L35.9106 80.929ZM68.1632 209.554C68.4096 209.552 68.6595 209.549 68.913 209.546L133.565 208.816C133.818 208.813 134.068 208.81 134.314 208.808L68.1632 209.554Z" fill="#04764E"/>
<g opacity="0.4">
<path fill-rule="evenodd" clip-rule="evenodd" d="M68.2796 53.5431L42.2813 53.8366L42.2813 53.8367L68.2796 53.5432L68.2796 53.5431ZM70.0156 69.1246L44.0173 69.4181L54.4334 162.906L80.4317 162.613L70.0156 69.1246Z" fill="white" style="mix-blend-mode:soft-light"/>
</g>
<path style="mix-blend-mode:soft-light" fill-rule="evenodd" clip-rule="evenodd" d="M147.472 161.856C151.683 161.807 153.832 161.743 155.258 160.421C156.729 159.057 156.923 156.826 157.312 152.363L163.655 79.4868C164.12 74.1458 164.352 71.4753 162.785 69.7851C161.439 68.3334 159.272 68.1509 155.29 68.1666L146.988 161.861L147.472 161.856Z" fill="black" fill-opacity="0.4"/>
<path fill-rule="evenodd" clip-rule="evenodd" d="M107.747 94.7002C107.731 93.2644 108.881 92.0873 110.317 92.071C111.753 92.0548 112.93 93.2057 112.946 94.6415L113.416 136.239C113.432 137.675 112.281 138.852 110.846 138.868C109.41 138.884 108.233 137.733 108.216 136.298L107.747 94.7002ZM66.1494 95.1699C66.1332 93.734 67.284 92.5569 68.7199 92.5407C70.1557 92.5245 71.3329 93.6753 71.3491 95.1112L71.8187 136.709C71.8349 138.144 70.6841 139.322 69.2482 139.338C67.8124 139.354 66.6352 138.203 66.619 136.767L66.1494 95.1699ZM55.7501 95.2873C55.7339 93.8514 56.8847 92.6743 58.3206 92.6581C59.7564 92.6419 60.9335 93.7927 60.9498 95.2286L61.4194 136.826C61.4356 138.262 60.2848 139.439 58.8489 139.455C57.4131 139.471 56.2359 138.321 56.2197 136.885L55.7501 95.2873ZM79.1192 92.4233C77.6834 92.4395 76.5326 93.6167 76.5488 95.0525L77.0184 136.65C77.0346 138.086 78.2117 139.237 79.6476 139.22C81.0834 139.204 82.2343 138.027 82.2181 136.591L81.7484 94.9938C81.7322 93.558 80.5551 92.4071 79.1192 92.4233ZM86.9481 94.9351C86.9318 93.4992 88.0827 92.3221 89.5185 92.3059C90.9544 92.2897 92.1315 93.4405 92.1477 94.8764L92.6174 136.474C92.6336 137.91 91.4827 139.087 90.0469 139.103C88.611 139.119 87.4339 137.968 87.4177 136.532L86.9481 94.9351ZM99.9179 92.1885C98.482 92.2047 97.3312 93.3818 97.3474 94.8177L97.8171 136.415C97.8333 137.851 99.0104 139.002 100.446 138.985C101.882 138.969 103.033 137.792 103.017 136.356L102.547 94.759C102.531 93.3231 101.354 92.1723 99.9179 92.1885ZM120.717 91.9537C119.281 91.9699 118.13 93.147 118.146 94.5829L118.616 136.18C118.632 137.616 119.809 138.767 121.245 138.751C122.681 138.735 123.832 137.557 123.815 136.122L123.346 94.5242C123.33 93.0883 122.152 91.9375 120.717 91.9537ZM128.545 94.4654C128.529 93.0296 129.68 91.8525 131.116 91.8363C132.552 91.82 133.729 92.9709 133.745 94.4067L134.215 136.004C134.231 137.44 133.08 138.617 131.644 138.633C130.208 138.649 129.031 137.499 129.015 136.063L128.545 94.4654ZM141.515 91.7188C140.079 91.735 138.929 92.9122 138.945 94.348L139.414 135.945C139.431 137.381 140.608 138.532 142.044 138.516C143.479 138.5 144.63 137.323 144.614 135.887L144.144 94.2893C144.128 92.8535 142.951 91.7026 141.515 91.7188Z" fill="#AB604B" style="mix-blend-mode:darken"/>
</g>
<defs>
<filter id="filter0_d_103_53" x="0.0955544" y="0.313721" width="199.938" height="251.348" filterUnits="userSpaceOnUse" color-interpolation-filters="sRGB">
<feFlood flood-opacity="0" result="BackgroundImageFix"/>
<feColorMatrix in="SourceAlpha" type="matrix" values="0 0 0 0 0 0 0 0 0 0 0 0 0 0 0 0 0 0 127 0" result="hardAlpha"/>
<feOffset dy="20.8"/>
<feGaussianBlur stdDeviation="10.4"/>
<feColorMatrix type="matrix" values="0 0 0 0 0 0 0 0 0 0 0 0 0 0 0 0 0 0 0.12 0"/>
<feBlend mode="darken" in2="BackgroundImageFix" result="effect1_dropShadow_103_53"/>
<feBlend mode="normal" in="SourceGraphic" in2="effect1_dropShadow_103_53" result="shape"/>
</filter>
</defs>
</svg>
